<svg xmlns="http://www.w3.org/2000/svg" xmlns:xlink="http://www.w3.org/1999/xlink" width="559" zoomAndPan="magnify" viewBox="0 0 419.25 595.499986" height="794" preserveAspectRatio="xMidYMid meet" version="1.0"><defs><clipPath id="b5d0c122f3"><path d="M 0.550781 0.523438 L 306.734375 0.523438 L 306.734375 507.644531 L 0.550781 507.644531 Z M 0.550781 0.523438 " clip-rule="nonzero"/></clipPath><clipPath id="35680ab19c"><path d="M 204.671875 9.40625 C 188.984375 4.121094 171.148438 0.652344 153.640625 0.652344 C 136.136719 0.652344 119.292969 3.625 103.769531 8.910156 C 103.4375 9.074219 103.105469 9.074219 102.777344 9.238281 C 44.480469 30.378906 1.539062 86.199219 0.714844 151.84375 L 0.714844 507.644531 L 306.734375 507.644531 L 306.734375 152.113281 C 305.910156 85.867188 263.632812 30.046875 204.671875 9.40625 Z M 204.671875 9.40625 " clip-rule="nonzero"/></clipPath><clipPath id="efdaa95363"><path d="M 0.550781 0.523438 L 306.734375 0.523438 L 306.734375 507.644531 L 0.550781 507.644531 Z M 0.550781 0.523438 " clip-rule="nonzero"/></clipPath><clipPath id="5978682268"><path d="M 204.671875 9.40625 C 188.984375 4.121094 171.148438 0.652344 153.640625 0.652344 C 136.136719 0.652344 119.292969 3.625 103.769531 8.910156 C 103.4375 9.074219 103.105469 9.074219 102.777344 9.238281 C 44.480469 30.378906 1.539062 86.199219 0.714844 151.84375 L 0.714844 507.644531 L 306.734375 507.644531 L 306.734375 152.113281 C 305.910156 85.867188 263.632812 30.046875 204.671875 9.40625 Z M 204.671875 9.40625 " clip-rule="nonzero"/></clipPath><clipPath id="1e583c673a"><rect x="0" width="307" y="0" height="508"/></clipPath><clipPath id="b0a1a72f9e"><rect x="0" width="307" y="0" height="508"/></clipPath></defs><g transform="matrix(1, 0, 0, 1, 56, 42)"><g clip-path="url(#b0a1a72f9e)"><g clip-path="url(#b5d0c122f3)"><g clip-path="url(#35680ab19c)"><g transform="matrix(1, 0, 0, 1, 0.000000000000007105, -0.000000000000049738)"><g clip-path="url(#1e583c673a)"><g clip-path="url(#efdaa95363)"><g clip-path="url(#5978682268)"><path fill="#5b7763" d="M 306.734375 507.644531 L 0.550781 507.644531 L 0.550781 0.523438 L 306.734375 0.523438 Z M 306.734375 507.644531 " fill-opacity="1" fill-rule="nonzero"/></g></g></g></g></g></g></g></g></svg>